<mxfile host="app.diagrams.net" modified="2023-08-02T08:42:49.628Z" agent="Mozilla/5.0 (Windows NT 10.0; Win64; x64) AppleWebKit/537.36 (KHTML, like Gecko) Chrome/115.0.0.0 Safari/537.36" etag="0Yl45AhTTZiKtNxz5tsV" version="21.6.6" type="device">
  <diagram name="Page-1" id="xl-kqhWoEMoC6YqDio9-">
    <mxGraphModel dx="840" dy="459" grid="1" gridSize="10" guides="1" tooltips="1" connect="1" arrows="1" fold="1" page="1" pageScale="1" pageWidth="850" pageHeight="1100" math="0" shadow="0">
      <root>
        <mxCell id="0" />
        <mxCell id="1" parent="0" />
        <mxCell id="Nj_ESNKBU6NZ9IfkIgUD-1" value="Start" style="rounded=1;whiteSpace=wrap;html=1;" vertex="1" parent="1">
          <mxGeometry x="150" y="30" width="120" height="60" as="geometry" />
        </mxCell>
        <mxCell id="Nj_ESNKBU6NZ9IfkIgUD-2" value="Create a repository" style="rounded=1;whiteSpace=wrap;html=1;" vertex="1" parent="1">
          <mxGeometry x="150" y="130" width="120" height="60" as="geometry" />
        </mxCell>
        <mxCell id="Nj_ESNKBU6NZ9IfkIgUD-3" value="Initialize a repository with files (if any)" style="rounded=1;whiteSpace=wrap;html=1;" vertex="1" parent="1">
          <mxGeometry x="150" y="230" width="120" height="60" as="geometry" />
        </mxCell>
        <mxCell id="Nj_ESNKBU6NZ9IfkIgUD-4" value="Set working directory" style="rounded=1;whiteSpace=wrap;html=1;" vertex="1" parent="1">
          <mxGeometry x="150" y="320" width="120" height="60" as="geometry" />
        </mxCell>
        <mxCell id="Nj_ESNKBU6NZ9IfkIgUD-5" value="Make Changes to files in working directory" style="rounded=1;whiteSpace=wrap;html=1;" vertex="1" parent="1">
          <mxGeometry x="150" y="540" width="120" height="60" as="geometry" />
        </mxCell>
        <mxCell id="Nj_ESNKBU6NZ9IfkIgUD-6" value="Stage" style="rounded=1;whiteSpace=wrap;html=1;" vertex="1" parent="1">
          <mxGeometry x="150" y="640" width="120" height="60" as="geometry" />
        </mxCell>
        <mxCell id="Nj_ESNKBU6NZ9IfkIgUD-7" value="Commit" style="rounded=1;whiteSpace=wrap;html=1;" vertex="1" parent="1">
          <mxGeometry x="150" y="870" width="120" height="60" as="geometry" />
        </mxCell>
        <mxCell id="Nj_ESNKBU6NZ9IfkIgUD-8" value="Push" style="rounded=1;whiteSpace=wrap;html=1;" vertex="1" parent="1">
          <mxGeometry x="150" y="960" width="120" height="60" as="geometry" />
        </mxCell>
        <mxCell id="Nj_ESNKBU6NZ9IfkIgUD-16" value="Changes needed?" style="rhombus;whiteSpace=wrap;html=1;" vertex="1" parent="1">
          <mxGeometry x="170" y="410" width="80" height="80" as="geometry" />
        </mxCell>
        <mxCell id="Nj_ESNKBU6NZ9IfkIgUD-17" value="" style="endArrow=classic;html=1;rounded=0;exitX=0.5;exitY=1;exitDx=0;exitDy=0;entryX=0.5;entryY=0;entryDx=0;entryDy=0;" edge="1" parent="1" source="Nj_ESNKBU6NZ9IfkIgUD-1" target="Nj_ESNKBU6NZ9IfkIgUD-2">
          <mxGeometry width="50" height="50" relative="1" as="geometry">
            <mxPoint x="400" y="220" as="sourcePoint" />
            <mxPoint x="450" y="170" as="targetPoint" />
          </mxGeometry>
        </mxCell>
        <mxCell id="Nj_ESNKBU6NZ9IfkIgUD-18" value="" style="endArrow=classic;html=1;rounded=0;exitX=0.5;exitY=1;exitDx=0;exitDy=0;entryX=0.5;entryY=0;entryDx=0;entryDy=0;" edge="1" parent="1" source="Nj_ESNKBU6NZ9IfkIgUD-2" target="Nj_ESNKBU6NZ9IfkIgUD-3">
          <mxGeometry width="50" height="50" relative="1" as="geometry">
            <mxPoint x="400" y="320" as="sourcePoint" />
            <mxPoint x="450" y="270" as="targetPoint" />
          </mxGeometry>
        </mxCell>
        <mxCell id="Nj_ESNKBU6NZ9IfkIgUD-19" value="" style="endArrow=classic;html=1;rounded=0;exitX=0.5;exitY=1;exitDx=0;exitDy=0;entryX=0.5;entryY=0;entryDx=0;entryDy=0;" edge="1" parent="1" source="Nj_ESNKBU6NZ9IfkIgUD-3" target="Nj_ESNKBU6NZ9IfkIgUD-4">
          <mxGeometry width="50" height="50" relative="1" as="geometry">
            <mxPoint x="400" y="420" as="sourcePoint" />
            <mxPoint x="450" y="370" as="targetPoint" />
          </mxGeometry>
        </mxCell>
        <mxCell id="Nj_ESNKBU6NZ9IfkIgUD-20" value="" style="endArrow=classic;html=1;rounded=0;exitX=0.5;exitY=1;exitDx=0;exitDy=0;entryX=0.5;entryY=0;entryDx=0;entryDy=0;" edge="1" parent="1" source="Nj_ESNKBU6NZ9IfkIgUD-16" target="Nj_ESNKBU6NZ9IfkIgUD-5">
          <mxGeometry width="50" height="50" relative="1" as="geometry">
            <mxPoint x="400" y="520" as="sourcePoint" />
            <mxPoint x="450" y="470" as="targetPoint" />
          </mxGeometry>
        </mxCell>
        <mxCell id="Nj_ESNKBU6NZ9IfkIgUD-21" value="" style="endArrow=classic;html=1;rounded=0;exitX=1;exitY=0.5;exitDx=0;exitDy=0;entryX=0.5;entryY=0;entryDx=0;entryDy=0;" edge="1" parent="1" source="Nj_ESNKBU6NZ9IfkIgUD-16" target="Nj_ESNKBU6NZ9IfkIgUD-33">
          <mxGeometry width="50" height="50" relative="1" as="geometry">
            <mxPoint x="400" y="520" as="sourcePoint" />
            <mxPoint x="580" y="1730.6400390625" as="targetPoint" />
            <Array as="points">
              <mxPoint x="570" y="450" />
            </Array>
          </mxGeometry>
        </mxCell>
        <mxCell id="Nj_ESNKBU6NZ9IfkIgUD-22" value="No" style="text;html=1;align=center;verticalAlign=middle;resizable=0;points=[];autosize=1;strokeColor=none;fillColor=none;" vertex="1" parent="1">
          <mxGeometry x="350" y="420" width="40" height="30" as="geometry" />
        </mxCell>
        <mxCell id="Nj_ESNKBU6NZ9IfkIgUD-23" value="Yes" style="text;html=1;align=center;verticalAlign=middle;resizable=0;points=[];autosize=1;strokeColor=none;fillColor=none;" vertex="1" parent="1">
          <mxGeometry x="210" y="498" width="40" height="30" as="geometry" />
        </mxCell>
        <mxCell id="Nj_ESNKBU6NZ9IfkIgUD-24" value="" style="endArrow=classic;html=1;rounded=0;exitX=0.5;exitY=1;exitDx=0;exitDy=0;entryX=0.5;entryY=0;entryDx=0;entryDy=0;" edge="1" parent="1" source="Nj_ESNKBU6NZ9IfkIgUD-4" target="Nj_ESNKBU6NZ9IfkIgUD-16">
          <mxGeometry width="50" height="50" relative="1" as="geometry">
            <mxPoint x="400" y="420" as="sourcePoint" />
            <mxPoint x="450" y="370" as="targetPoint" />
          </mxGeometry>
        </mxCell>
        <mxCell id="Nj_ESNKBU6NZ9IfkIgUD-25" value="" style="endArrow=classic;html=1;rounded=0;exitX=0.5;exitY=1;exitDx=0;exitDy=0;entryX=0.5;entryY=0;entryDx=0;entryDy=0;" edge="1" parent="1" source="Nj_ESNKBU6NZ9IfkIgUD-5" target="Nj_ESNKBU6NZ9IfkIgUD-6">
          <mxGeometry width="50" height="50" relative="1" as="geometry">
            <mxPoint x="400" y="620" as="sourcePoint" />
            <mxPoint x="450" y="570" as="targetPoint" />
          </mxGeometry>
        </mxCell>
        <mxCell id="Nj_ESNKBU6NZ9IfkIgUD-26" value="Approve Changes?" style="rhombus;whiteSpace=wrap;html=1;" vertex="1" parent="1">
          <mxGeometry x="170" y="740" width="80" height="80" as="geometry" />
        </mxCell>
        <mxCell id="Nj_ESNKBU6NZ9IfkIgUD-27" value="Pull changes from repository" style="rounded=1;whiteSpace=wrap;html=1;" vertex="1" parent="1">
          <mxGeometry x="150" y="1060" width="120" height="60" as="geometry" />
        </mxCell>
        <mxCell id="Nj_ESNKBU6NZ9IfkIgUD-28" value="Resolve Conflicts" style="rounded=1;whiteSpace=wrap;html=1;" vertex="1" parent="1">
          <mxGeometry x="150" y="1280" width="120" height="60" as="geometry" />
        </mxCell>
        <mxCell id="Nj_ESNKBU6NZ9IfkIgUD-29" value="Merge Changes" style="rounded=1;whiteSpace=wrap;html=1;" vertex="1" parent="1">
          <mxGeometry x="150" y="1410" width="120" height="60" as="geometry" />
        </mxCell>
        <mxCell id="Nj_ESNKBU6NZ9IfkIgUD-30" value="View&lt;br&gt;Pull-Requests" style="rounded=1;whiteSpace=wrap;html=1;" vertex="1" parent="1">
          <mxGeometry x="150" y="1540" width="120" height="60" as="geometry" />
        </mxCell>
        <mxCell id="Nj_ESNKBU6NZ9IfkIgUD-32" value="Deploy Changes" style="rounded=1;whiteSpace=wrap;html=1;" vertex="1" parent="1">
          <mxGeometry x="150" y="1800" width="120" height="60" as="geometry" />
        </mxCell>
        <mxCell id="Nj_ESNKBU6NZ9IfkIgUD-33" value="End" style="rounded=1;whiteSpace=wrap;html=1;" vertex="1" parent="1">
          <mxGeometry x="520" y="1800" width="120" height="60" as="geometry" />
        </mxCell>
        <mxCell id="Nj_ESNKBU6NZ9IfkIgUD-34" value="" style="endArrow=classic;html=1;rounded=0;exitX=0.5;exitY=1;exitDx=0;exitDy=0;entryX=0.5;entryY=0;entryDx=0;entryDy=0;" edge="1" parent="1" source="Nj_ESNKBU6NZ9IfkIgUD-6" target="Nj_ESNKBU6NZ9IfkIgUD-26">
          <mxGeometry width="50" height="50" relative="1" as="geometry">
            <mxPoint x="390" y="780" as="sourcePoint" />
            <mxPoint x="440" y="730" as="targetPoint" />
          </mxGeometry>
        </mxCell>
        <mxCell id="Nj_ESNKBU6NZ9IfkIgUD-35" value="" style="endArrow=classic;html=1;rounded=0;exitX=0.5;exitY=1;exitDx=0;exitDy=0;entryX=0.5;entryY=0;entryDx=0;entryDy=0;" edge="1" parent="1" source="Nj_ESNKBU6NZ9IfkIgUD-26" target="Nj_ESNKBU6NZ9IfkIgUD-7">
          <mxGeometry width="50" height="50" relative="1" as="geometry">
            <mxPoint x="390" y="860" as="sourcePoint" />
            <mxPoint x="440" y="810" as="targetPoint" />
          </mxGeometry>
        </mxCell>
        <mxCell id="Nj_ESNKBU6NZ9IfkIgUD-36" value="" style="endArrow=classic;html=1;rounded=0;exitX=0.5;exitY=1;exitDx=0;exitDy=0;entryX=0.5;entryY=0;entryDx=0;entryDy=0;" edge="1" parent="1" source="Nj_ESNKBU6NZ9IfkIgUD-7" target="Nj_ESNKBU6NZ9IfkIgUD-8">
          <mxGeometry width="50" height="50" relative="1" as="geometry">
            <mxPoint x="390" y="860" as="sourcePoint" />
            <mxPoint x="440" y="810" as="targetPoint" />
          </mxGeometry>
        </mxCell>
        <mxCell id="Nj_ESNKBU6NZ9IfkIgUD-37" value="" style="endArrow=classic;html=1;rounded=0;entryX=1;entryY=0.5;entryDx=0;entryDy=0;" edge="1" parent="1" target="Nj_ESNKBU6NZ9IfkIgUD-5">
          <mxGeometry width="50" height="50" relative="1" as="geometry">
            <mxPoint x="250" y="780" as="sourcePoint" />
            <mxPoint x="570" y="780" as="targetPoint" />
            <Array as="points">
              <mxPoint x="350" y="780" />
              <mxPoint x="350" y="570" />
            </Array>
          </mxGeometry>
        </mxCell>
        <mxCell id="Nj_ESNKBU6NZ9IfkIgUD-38" value="Yes" style="text;html=1;align=center;verticalAlign=middle;resizable=0;points=[];autosize=1;strokeColor=none;fillColor=none;" vertex="1" parent="1">
          <mxGeometry x="210" y="830" width="40" height="30" as="geometry" />
        </mxCell>
        <mxCell id="Nj_ESNKBU6NZ9IfkIgUD-39" value="No" style="text;html=1;align=center;verticalAlign=middle;resizable=0;points=[];autosize=1;strokeColor=none;fillColor=none;" vertex="1" parent="1">
          <mxGeometry x="270" y="778" width="40" height="30" as="geometry" />
        </mxCell>
        <mxCell id="Nj_ESNKBU6NZ9IfkIgUD-40" value="" style="endArrow=classic;html=1;rounded=0;exitX=0.5;exitY=1;exitDx=0;exitDy=0;entryX=0.5;entryY=0;entryDx=0;entryDy=0;" edge="1" parent="1" source="Nj_ESNKBU6NZ9IfkIgUD-8" target="Nj_ESNKBU6NZ9IfkIgUD-27">
          <mxGeometry width="50" height="50" relative="1" as="geometry">
            <mxPoint x="390" y="1100" as="sourcePoint" />
            <mxPoint x="440" y="1050" as="targetPoint" />
          </mxGeometry>
        </mxCell>
        <mxCell id="Nj_ESNKBU6NZ9IfkIgUD-42" value="Conflicts emerge?" style="rhombus;whiteSpace=wrap;html=1;" vertex="1" parent="1">
          <mxGeometry x="170" y="1150" width="80" height="80" as="geometry" />
        </mxCell>
        <mxCell id="Nj_ESNKBU6NZ9IfkIgUD-43" value="" style="endArrow=classic;html=1;rounded=0;exitX=0.5;exitY=1;exitDx=0;exitDy=0;entryX=0.5;entryY=0;entryDx=0;entryDy=0;" edge="1" parent="1" source="Nj_ESNKBU6NZ9IfkIgUD-27" target="Nj_ESNKBU6NZ9IfkIgUD-42">
          <mxGeometry width="50" height="50" relative="1" as="geometry">
            <mxPoint x="390" y="1180" as="sourcePoint" />
            <mxPoint x="440" y="1130" as="targetPoint" />
          </mxGeometry>
        </mxCell>
        <mxCell id="Nj_ESNKBU6NZ9IfkIgUD-44" value="" style="endArrow=classic;html=1;rounded=0;exitX=0.5;exitY=1;exitDx=0;exitDy=0;entryX=0.5;entryY=0;entryDx=0;entryDy=0;" edge="1" parent="1" source="Nj_ESNKBU6NZ9IfkIgUD-42" target="Nj_ESNKBU6NZ9IfkIgUD-28">
          <mxGeometry width="50" height="50" relative="1" as="geometry">
            <mxPoint x="390" y="1180" as="sourcePoint" />
            <mxPoint x="440" y="1130" as="targetPoint" />
          </mxGeometry>
        </mxCell>
        <mxCell id="Nj_ESNKBU6NZ9IfkIgUD-45" value="" style="endArrow=classic;html=1;rounded=0;exitX=1;exitY=0.5;exitDx=0;exitDy=0;entryX=1;entryY=0.5;entryDx=0;entryDy=0;" edge="1" parent="1" source="Nj_ESNKBU6NZ9IfkIgUD-42" target="Nj_ESNKBU6NZ9IfkIgUD-30">
          <mxGeometry width="50" height="50" relative="1" as="geometry">
            <mxPoint x="390" y="1340" as="sourcePoint" />
            <mxPoint x="360" y="1640.9599609375" as="targetPoint" />
            <Array as="points">
              <mxPoint x="360" y="1190" />
              <mxPoint x="360" y="1570" />
            </Array>
          </mxGeometry>
        </mxCell>
        <mxCell id="Nj_ESNKBU6NZ9IfkIgUD-46" value="No" style="text;html=1;align=center;verticalAlign=middle;resizable=0;points=[];autosize=1;strokeColor=none;fillColor=none;" vertex="1" parent="1">
          <mxGeometry x="270" y="1158" width="40" height="30" as="geometry" />
        </mxCell>
        <mxCell id="Nj_ESNKBU6NZ9IfkIgUD-47" value="Yes" style="text;html=1;align=center;verticalAlign=middle;resizable=0;points=[];autosize=1;strokeColor=none;fillColor=none;" vertex="1" parent="1">
          <mxGeometry x="210" y="1230" width="40" height="30" as="geometry" />
        </mxCell>
        <mxCell id="Nj_ESNKBU6NZ9IfkIgUD-48" value="" style="endArrow=classic;html=1;rounded=0;exitX=0.5;exitY=1;exitDx=0;exitDy=0;entryX=0.5;entryY=0;entryDx=0;entryDy=0;" edge="1" parent="1" source="Nj_ESNKBU6NZ9IfkIgUD-28" target="Nj_ESNKBU6NZ9IfkIgUD-29">
          <mxGeometry width="50" height="50" relative="1" as="geometry">
            <mxPoint x="390" y="1380" as="sourcePoint" />
            <mxPoint x="440" y="1330" as="targetPoint" />
          </mxGeometry>
        </mxCell>
        <mxCell id="Nj_ESNKBU6NZ9IfkIgUD-49" value="Approve Request?" style="rhombus;whiteSpace=wrap;html=1;" vertex="1" parent="1">
          <mxGeometry x="170" y="1650" width="80" height="80" as="geometry" />
        </mxCell>
        <mxCell id="Nj_ESNKBU6NZ9IfkIgUD-50" value="" style="endArrow=classic;html=1;rounded=0;exitX=0.5;exitY=1;exitDx=0;exitDy=0;entryX=0.5;entryY=0;entryDx=0;entryDy=0;" edge="1" parent="1" source="Nj_ESNKBU6NZ9IfkIgUD-30" target="Nj_ESNKBU6NZ9IfkIgUD-49">
          <mxGeometry width="50" height="50" relative="1" as="geometry">
            <mxPoint x="390" y="1700" as="sourcePoint" />
            <mxPoint x="440" y="1650" as="targetPoint" />
          </mxGeometry>
        </mxCell>
        <mxCell id="Nj_ESNKBU6NZ9IfkIgUD-51" value="" style="endArrow=classic;html=1;rounded=0;exitX=0.5;exitY=1;exitDx=0;exitDy=0;entryX=0.5;entryY=0;entryDx=0;entryDy=0;" edge="1" parent="1" source="Nj_ESNKBU6NZ9IfkIgUD-49" target="Nj_ESNKBU6NZ9IfkIgUD-32">
          <mxGeometry width="50" height="50" relative="1" as="geometry">
            <mxPoint x="390" y="1860" as="sourcePoint" />
            <mxPoint x="440" y="1810" as="targetPoint" />
          </mxGeometry>
        </mxCell>
        <mxCell id="Nj_ESNKBU6NZ9IfkIgUD-52" value="Yes" style="text;html=1;align=center;verticalAlign=middle;resizable=0;points=[];autosize=1;strokeColor=none;fillColor=none;" vertex="1" parent="1">
          <mxGeometry x="210" y="1748" width="40" height="30" as="geometry" />
        </mxCell>
        <mxCell id="Nj_ESNKBU6NZ9IfkIgUD-53" value="" style="endArrow=classic;html=1;rounded=0;exitX=1;exitY=0.5;exitDx=0;exitDy=0;entryX=0;entryY=0.5;entryDx=0;entryDy=0;" edge="1" parent="1" source="Nj_ESNKBU6NZ9IfkIgUD-32" target="Nj_ESNKBU6NZ9IfkIgUD-33">
          <mxGeometry width="50" height="50" relative="1" as="geometry">
            <mxPoint x="390" y="1860" as="sourcePoint" />
            <mxPoint x="440" y="1810" as="targetPoint" />
          </mxGeometry>
        </mxCell>
        <mxCell id="Nj_ESNKBU6NZ9IfkIgUD-54" value="" style="endArrow=classic;html=1;rounded=0;exitX=0.5;exitY=1;exitDx=0;exitDy=0;entryX=0.5;entryY=0;entryDx=0;entryDy=0;" edge="1" parent="1" source="Nj_ESNKBU6NZ9IfkIgUD-29" target="Nj_ESNKBU6NZ9IfkIgUD-30">
          <mxGeometry width="50" height="50" relative="1" as="geometry">
            <mxPoint x="390" y="1540" as="sourcePoint" />
            <mxPoint x="440" y="1490" as="targetPoint" />
          </mxGeometry>
        </mxCell>
        <mxCell id="Nj_ESNKBU6NZ9IfkIgUD-55" value="" style="endArrow=classic;html=1;rounded=0;exitX=1;exitY=0.5;exitDx=0;exitDy=0;" edge="1" parent="1" source="Nj_ESNKBU6NZ9IfkIgUD-49">
          <mxGeometry width="50" height="50" relative="1" as="geometry">
            <mxPoint x="390" y="1760" as="sourcePoint" />
            <mxPoint x="580" y="1690" as="targetPoint" />
          </mxGeometry>
        </mxCell>
        <mxCell id="Nj_ESNKBU6NZ9IfkIgUD-56" value="No" style="text;html=1;align=center;verticalAlign=middle;resizable=0;points=[];autosize=1;strokeColor=none;fillColor=none;" vertex="1" parent="1">
          <mxGeometry x="340" y="1658" width="40" height="30" as="geometry" />
        </mxCell>
        <mxCell id="Nj_ESNKBU6NZ9IfkIgUD-57" value="1" style="text;html=1;align=center;verticalAlign=middle;resizable=0;points=[];autosize=1;strokeColor=none;fillColor=none;" vertex="1" parent="1">
          <mxGeometry x="205" y="88" width="30" height="30" as="geometry" />
        </mxCell>
        <mxCell id="Nj_ESNKBU6NZ9IfkIgUD-58" value="2" style="text;html=1;align=center;verticalAlign=middle;resizable=0;points=[];autosize=1;strokeColor=none;fillColor=none;" vertex="1" parent="1">
          <mxGeometry x="205" y="188" width="30" height="30" as="geometry" />
        </mxCell>
        <mxCell id="Nj_ESNKBU6NZ9IfkIgUD-59" value="3" style="text;html=1;align=center;verticalAlign=middle;resizable=0;points=[];autosize=1;strokeColor=none;fillColor=none;" vertex="1" parent="1">
          <mxGeometry x="205" y="288" width="30" height="30" as="geometry" />
        </mxCell>
        <mxCell id="Nj_ESNKBU6NZ9IfkIgUD-60" value="4" style="text;html=1;align=center;verticalAlign=middle;resizable=0;points=[];autosize=1;strokeColor=none;fillColor=none;" vertex="1" parent="1">
          <mxGeometry x="215" y="378" width="30" height="30" as="geometry" />
        </mxCell>
        <mxCell id="Nj_ESNKBU6NZ9IfkIgUD-61" value="5" style="text;html=1;align=center;verticalAlign=middle;resizable=0;points=[];autosize=1;strokeColor=none;fillColor=none;" vertex="1" parent="1">
          <mxGeometry x="275" y="418" width="30" height="30" as="geometry" />
        </mxCell>
        <mxCell id="Nj_ESNKBU6NZ9IfkIgUD-62" value="6" style="text;html=1;align=center;verticalAlign=middle;resizable=0;points=[];autosize=1;strokeColor=none;fillColor=none;" vertex="1" parent="1">
          <mxGeometry x="185" y="488" width="30" height="30" as="geometry" />
        </mxCell>
        <mxCell id="Nj_ESNKBU6NZ9IfkIgUD-63" value="7" style="text;html=1;align=center;verticalAlign=middle;resizable=0;points=[];autosize=1;strokeColor=none;fillColor=none;" vertex="1" parent="1">
          <mxGeometry x="175" y="608" width="30" height="30" as="geometry" />
        </mxCell>
        <mxCell id="Nj_ESNKBU6NZ9IfkIgUD-64" value="8" style="text;html=1;align=center;verticalAlign=middle;resizable=0;points=[];autosize=1;strokeColor=none;fillColor=none;" vertex="1" parent="1">
          <mxGeometry x="175" y="708" width="30" height="30" as="geometry" />
        </mxCell>
        <mxCell id="Nj_ESNKBU6NZ9IfkIgUD-65" value="9" style="text;html=1;align=center;verticalAlign=middle;resizable=0;points=[];autosize=1;strokeColor=none;fillColor=none;" vertex="1" parent="1">
          <mxGeometry x="270" y="748" width="30" height="30" as="geometry" />
        </mxCell>
        <mxCell id="Nj_ESNKBU6NZ9IfkIgUD-66" value="10" style="text;html=1;align=center;verticalAlign=middle;resizable=0;points=[];autosize=1;strokeColor=none;fillColor=none;" vertex="1" parent="1">
          <mxGeometry x="180" y="818" width="40" height="30" as="geometry" />
        </mxCell>
        <mxCell id="Nj_ESNKBU6NZ9IfkIgUD-67" value="11" style="text;html=1;align=center;verticalAlign=middle;resizable=0;points=[];autosize=1;strokeColor=none;fillColor=none;" vertex="1" parent="1">
          <mxGeometry x="180" y="928" width="40" height="30" as="geometry" />
        </mxCell>
        <mxCell id="Nj_ESNKBU6NZ9IfkIgUD-68" value="12" style="text;html=1;align=center;verticalAlign=middle;resizable=0;points=[];autosize=1;strokeColor=none;fillColor=none;" vertex="1" parent="1">
          <mxGeometry x="180" y="1028" width="40" height="30" as="geometry" />
        </mxCell>
        <mxCell id="Nj_ESNKBU6NZ9IfkIgUD-69" value="13" style="text;html=1;align=center;verticalAlign=middle;resizable=0;points=[];autosize=1;strokeColor=none;fillColor=none;" vertex="1" parent="1">
          <mxGeometry x="180" y="1120" width="40" height="30" as="geometry" />
        </mxCell>
        <mxCell id="Nj_ESNKBU6NZ9IfkIgUD-70" value="14" style="text;html=1;align=center;verticalAlign=middle;resizable=0;points=[];autosize=1;strokeColor=none;fillColor=none;" vertex="1" parent="1">
          <mxGeometry x="280" y="1188" width="40" height="30" as="geometry" />
        </mxCell>
        <mxCell id="Nj_ESNKBU6NZ9IfkIgUD-72" value="15" style="text;html=1;align=center;verticalAlign=middle;resizable=0;points=[];autosize=1;strokeColor=none;fillColor=none;" vertex="1" parent="1">
          <mxGeometry x="170" y="1238" width="40" height="30" as="geometry" />
        </mxCell>
        <mxCell id="Nj_ESNKBU6NZ9IfkIgUD-73" value="16" style="text;html=1;align=center;verticalAlign=middle;resizable=0;points=[];autosize=1;strokeColor=none;fillColor=none;" vertex="1" parent="1">
          <mxGeometry x="170" y="1358" width="40" height="30" as="geometry" />
        </mxCell>
        <mxCell id="Nj_ESNKBU6NZ9IfkIgUD-74" value="17" style="text;html=1;align=center;verticalAlign=middle;resizable=0;points=[];autosize=1;strokeColor=none;fillColor=none;" vertex="1" parent="1">
          <mxGeometry x="175" y="1488" width="40" height="30" as="geometry" />
        </mxCell>
        <mxCell id="Nj_ESNKBU6NZ9IfkIgUD-75" value="18" style="text;html=1;align=center;verticalAlign=middle;resizable=0;points=[];autosize=1;strokeColor=none;fillColor=none;" vertex="1" parent="1">
          <mxGeometry x="175" y="1608" width="40" height="30" as="geometry" />
        </mxCell>
        <mxCell id="Nj_ESNKBU6NZ9IfkIgUD-77" value="19" style="text;html=1;align=center;verticalAlign=middle;resizable=0;points=[];autosize=1;strokeColor=none;fillColor=none;" vertex="1" parent="1">
          <mxGeometry x="340" y="1688" width="40" height="30" as="geometry" />
        </mxCell>
        <mxCell id="Nj_ESNKBU6NZ9IfkIgUD-78" value="20" style="text;html=1;align=center;verticalAlign=middle;resizable=0;points=[];autosize=1;strokeColor=none;fillColor=none;" vertex="1" parent="1">
          <mxGeometry x="175" y="1748" width="40" height="30" as="geometry" />
        </mxCell>
        <mxCell id="Nj_ESNKBU6NZ9IfkIgUD-79" value="21" style="text;html=1;align=center;verticalAlign=middle;resizable=0;points=[];autosize=1;strokeColor=none;fillColor=none;" vertex="1" parent="1">
          <mxGeometry x="340" y="1798" width="40" height="30" as="geometry" />
        </mxCell>
      </root>
    </mxGraphModel>
  </diagram>
</mxfile>
